<svg xmlns="http://www.w3.org/2000/svg" xmlns:xlink="http://www.w3.org/1999/xlink" viewBox="0 0 302 175.91"><defs><style>.cls-1{fill:none;}.cls-2{fill:#027373;}.cls-2,.cls-3,.cls-4{fill-rule:evenodd;}.cls-3{fill:#59c284;}.cls-5{clip-path:url(#clip-path);}.cls-6{clip-path:url(#clip-path-2);}</style><clipPath id="clip-path"><rect class="cls-1" x="81.76" y="143.44" width="21.27" height="32.47"/></clipPath><clipPath id="clip-path-2"><rect class="cls-1" x="275.35" y="139" width="26.65" height="36.86"/></clipPath></defs><title>자산 1</title><g id="레이어_2" data-name="레이어 2"><g id="레이어_1-2" data-name="레이어 1"><path class="cls-2" d="M148.64.07c-1.83,3.65-3.33,6.69-4.87,9.71Q121.57,53.25,99.4,96.72c-1,1.86-2,2.72-4.22,2.69-11.8-.12-23.61-.06-35.42-.06h-3.7c1.42-2.85,2.55-5.2,3.73-7.51q22.71-44.5,45.4-89A4.39,4.39,0,0,1,109.82,0c11.89.13,23.77.07,35.66.07Z"/><path class="cls-2" d="M204.36.31c-3.54,7-6.86,13.54-10.2,20.08q-19.64,38.52-39.27,77a3,3,0,0,1-3,1.95c-12.58,0-25.17,0-37.75,0-.53,0-1.06-.11-2.06-.22,1-2,1.77-3.76,2.66-5.49q23.34-45.75,46.69-91.51A3.17,3.17,0,0,1,164.59,0c12.43.06,24.86,0,37.29,0,.67,0,1.34.13,2.48.24"/><path class="cls-3" d="M167.9,99.28c.45-1,.7-1.72,1-2.37,6.62-13,13.27-25.94,19.84-38.95a3.46,3.46,0,0,1,3.62-2.16c10.49.08,21,0,31.48,0,11.71,0,20.82,8.35,22.1,20.29,1.11,10.37-6.65,20.65-17.43,22.91a29.6,29.6,0,0,1-6,.39q-25.87,0-51.76,0c-.82,0-1.64-.08-2.85-.14"/><path class="cls-3" d="M212,43.66c-4.43,0-8.85,0-13.28,0-1.89,0-2.38-.51-1.44-2.32,6.8-13.22,13.53-26.47,20.34-39.69.34-.65,1.14-1.48,1.77-1.51,5.85-.32,11.62-.25,16.87,3.05,8,5,12.18,15,9.77,23.74-2.8,10.15-10.77,16.41-21.45,16.68-4.19.11-8.39,0-12.58,0Z"/><path class="cls-2" d="M92.77.25c-12.1,23.69-24,47-35.91,70.29L56,70.37V63.54q0-30,0-60.06C56,.08,56,.07,59.5.07q15,0,30.09,0c.9,0,1.79.11,3.18.19"/><path class="cls-4" d="M63.64,151a8.07,8.07,0,0,1,6.84,3.51v-2.62h8.17V175H70.48v-2.62a7.75,7.75,0,0,1-6.84,3.51c-6.66,0-11.64-5-11.64-12.43S57,151,63.64,151m1.77,17.94c3,0,5.07-2.31,5.07-5.5s-2-5.51-5.07-5.51-5.06,2.31-5.06,5.51,2,5.5,5.06,5.5"/><g class="cls-5"><path class="cls-4" d="M102.06,159H93.62v5.9c0,2.93,1.51,3.69,3.56,3.69a12.34,12.34,0,0,0,4.79-1.07l1.07,7.24a27.5,27.5,0,0,1-7.64,1.16c-6.09,0-9.86-2.85-9.86-9.55V159H81.76v-7.11h3.78v-8.44h8.08v8.44h8.44Z"/></g><path class="cls-4" d="M127.56,173.64c-2.08,1.42-5.77,2.22-8.84,2.22-8,0-13.9-4.71-13.9-12.43S110.73,151,118.72,151c3,0,6.66.8,8.67,2.09l-2.76,6.79a9.55,9.55,0,0,0-5.42-1.64c-3.2,0-5.6,2-5.6,5.2s2.36,5.19,5.78,5.19A9.89,9.89,0,0,0,125,167Z"/><path class="cls-4" d="M147.42,175V162.63c0-2.67-1.56-4.45-4.22-4.45S139,160,139,162.63V175h-8.31V139H139v15.24c1.15-2.05,3.42-3.25,6.44-3.25,6.35,0,10.3,3.87,10.3,10.88V175Z"/><path class="cls-4" d="M160.83,175V139.89H177.4c7.51,0,12,3.42,12,9.68,0,3.6-1.78,6.26-4.84,7.15,3.82.62,6.08,3.33,6.08,8.13,0,6.22-4.39,10.12-12.08,10.12Zm8.31-21.05h7.73c2.35,0,4-1.06,4-3.5s-1.69-3.52-4-3.52h-7.73Zm0,14H178c2.35,0,4.13-1.29,4.13-3.68s-1.78-3.69-4.13-3.69h-8.84Z"/><path class="cls-4" d="M207.43,151c7.68,0,13.41,5,13.41,12.44s-5.73,12.43-13.41,12.43-13.41-5-13.41-12.43S199.75,151,207.43,151m0,17.94c3,0,5.07-2.31,5.07-5.5s-2.05-5.51-5.07-5.51-5.06,2.31-5.06,5.51,2,5.5,5.06,5.5"/><path class="cls-4" d="M235.15,151A8.05,8.05,0,0,1,242,154.5v-2.62h8.17V175H242v-2.62a7.73,7.73,0,0,1-6.84,3.51c-6.66,0-11.64-5-11.64-12.43s5-12.44,11.64-12.44m1.78,17.94c3,0,5.06-2.31,5.06-5.5s-2-5.51-5.06-5.51-5.07,2.31-5.07,5.51,2,5.5,5.07,5.5"/><path class="cls-4" d="M273,160.18a8.71,8.71,0,0,0-4.75-1.42c-2.71,0-4.84,2.14-4.84,5.78V175h-8.35v-23.1h8.35v3.86a6.6,6.6,0,0,1,6.4-4.75,12.75,12.75,0,0,1,5.64,1.29Z"/><g class="cls-6"><path class="cls-4" d="M287,151a8.27,8.27,0,0,1,6.84,3.07V139H302v36h-8.17v-2.62a7.73,7.73,0,0,1-6.84,3.51c-6.66,0-11.64-5-11.64-12.43S280.33,151,287,151m1.78,17.94c3,0,5.06-2.31,5.06-5.5s-2-5.51-5.06-5.51-5.07,2.31-5.07,5.51,2.05,5.5,5.07,5.5"/></g><polygon class="cls-4" points="42.06 139.91 37.59 158.11 36.02 165.64 34.48 158.11 30.19 139.91 20.81 139.91 16.52 158.11 14.98 165.64 13.41 158.11 8.94 139.91 0 139.91 10.25 174.91 19.72 174.91 23.88 157.01 25.5 148.81 27.12 157.01 31.28 174.91 40.75 174.91 51 139.91 42.06 139.91"/></g></g></svg>