<svg width="180" height="24" viewBox="0 0 180 24" fill="none" xmlns="http://www.w3.org/2000/svg">
<path d="M162.301 16.12C162.301 11.416 165.437 8.27997 169.637 8.27997C171.485 8.27997 173.025 8.97997 173.949 10.212V0.719971H179.101V23.4H173.949V21.748C173.025 23.204 171.485 23.96 169.637 23.96C165.437 23.96 162.301 20.824 162.301 16.12ZM167.565 16.12C167.565 18.136 168.853 19.592 170.757 19.592C172.661 19.592 173.949 18.136 173.949 16.12C173.949 14.104 172.661 12.648 170.757 12.648C168.853 12.648 167.565 14.104 167.565 16.12Z" fill="#027373"/>
<path d="M163.373 9.09203L161.833 14.076C160.965 13.516 159.957 13.18 158.837 13.18C157.129 13.18 155.785 14.524 155.785 16.82V23.4H150.521V8.84003H155.785V11.276C156.485 9.28803 158.025 8.28003 159.817 8.28003C161.049 8.28003 162.309 8.56003 163.373 9.09203Z" fill="#027373"/>
<path d="M131.652 16.12C131.652 11.416 134.788 8.28003 138.988 8.28003C140.836 8.28003 142.376 9.12003 143.3 10.492V8.84003H148.452V23.4H143.3V21.748C142.376 23.204 140.836 23.96 138.988 23.96C134.788 23.96 131.652 20.824 131.652 16.12ZM136.916 16.12C136.916 18.136 138.204 19.592 140.108 19.592C142.012 19.592 143.3 18.136 143.3 16.12C143.3 14.104 142.012 12.648 140.108 12.648C138.204 12.648 136.916 14.104 136.916 16.12Z" fill="#027373"/>
<path d="M114.059 16.12C114.059 11.416 117.671 8.28003 122.515 8.28003C127.359 8.28003 130.971 11.416 130.971 16.12C130.971 20.824 127.359 23.96 122.515 23.96C117.671 23.96 114.059 20.824 114.059 16.12ZM119.323 16.12C119.323 18.136 120.611 19.592 122.515 19.592C124.419 19.592 125.707 18.136 125.707 16.12C125.707 14.104 124.419 12.648 122.515 12.648C120.611 12.648 119.323 14.104 119.323 16.12Z" fill="#027373"/>
<path d="M113.391 16.12C113.391 20.824 110.395 23.96 106.195 23.96C104.347 23.96 102.667 23.204 101.743 21.748V23.4H96.5908V0.719971H101.743V10.492C102.667 9.11997 104.207 8.27997 106.055 8.27997C110.255 8.27997 113.391 11.416 113.391 16.12ZM108.127 16.12C108.127 14.104 106.839 12.648 104.935 12.648C103.031 12.648 101.743 14.104 101.743 16.12C101.743 18.136 103.031 19.592 104.935 19.592C106.839 19.592 108.127 18.136 108.127 16.12Z" fill="#027373"/>
<path d="M94.7891 23.4H89.5531V15.616C89.5531 13.936 88.5731 12.816 86.8931 12.816C85.2131 12.816 84.2331 13.936 84.2331 15.616V23.4H78.9971V0.719971H84.2331V10.324C84.9611 9.03597 86.3891 8.27997 88.2931 8.27997C92.2971 8.27997 94.7891 10.716 94.7891 15.14V23.4Z" fill="#027373"/>
<path d="M76.4229 18.36L78.0469 22.56C76.7309 23.456 74.4069 23.96 72.4749 23.96C67.4349 23.96 63.7109 20.992 63.7109 16.12C63.7109 11.248 67.4349 8.28003 72.4749 8.28003C74.3509 8.28003 76.6749 8.78403 77.9349 9.59603L76.1989 13.88C75.4149 13.236 73.9309 12.844 72.7829 12.844C70.7669 12.844 69.2549 14.076 69.2549 16.12C69.2549 18.164 70.7389 19.396 72.8949 19.396C74.1549 19.396 75.5829 19.004 76.4229 18.36Z" fill="#027373"/>
<path d="M62.9776 8.84002V13.32H57.6576V17.044C57.6576 18.892 58.6096 19.368 59.8976 19.368C60.7936 19.368 61.9136 19.144 62.9216 18.696L63.5936 23.26C62.1096 23.708 60.3736 23.988 58.7776 23.988C54.9416 23.988 52.5616 22.196 52.5616 17.968V13.32H50.1816V8.84002H52.5616V3.52002H57.6576V8.84002H62.9776Z" fill="#027373"/>
<path d="M32.4336 16.12C32.4336 11.416 35.5696 8.28003 39.7696 8.28003C41.6176 8.28003 43.1576 9.12003 44.0816 10.492V8.84003H49.2336V23.4H44.0816V21.748C43.1576 23.204 41.6176 23.96 39.7696 23.96C35.5696 23.96 32.4336 20.824 32.4336 16.12ZM37.6976 16.12C37.6976 18.136 38.9856 19.592 40.8896 19.592C42.7936 19.592 44.0816 18.136 44.0816 16.12C44.0816 14.104 42.7936 12.648 40.8896 12.648C38.9856 12.648 37.6976 14.104 37.6976 16.12Z" fill="#027373"/>
<path d="M7.11206 23.4L0.560059 1.28003H6.27206L9.12806 12.788L10.1361 17.548L11.1161 12.788L13.8601 1.28003H19.8521L22.5961 12.788L23.5761 17.548L24.5841 12.788L27.4401 1.28003H33.1521L26.6001 23.4H20.5521L17.8921 12.088L16.8561 6.90803L15.8201 12.088L13.1601 23.4H7.11206Z" fill="#027373"/>
</svg>
