<svg width="260" height="36" viewBox="0 0 260 36" fill="none" xmlns="http://www.w3.org/2000/svg">
<g clip-path="url(#clip0_8_269)">
<path fill-rule="evenodd" clip-rule="evenodd" d="M33.766 0.0245343C33.0981 1.34833 32.5515 2.44776 31.9902 3.5404C26.5974 14.0317 21.1968 24.5181 15.8187 35.0171C15.4735 35.6921 15.099 36.001 14.2825 35.9924C9.97898 35.9466 5.67451 35.9708 1.37103 35.9708C0.987713 35.9708 0.60342 35.9708 0.0235596 35.9708C0.539861 34.9365 0.950555 34.0886 1.38081 33.2514C6.90073 22.5086 12.4314 11.7706 17.9279 1.01616C18.3161 0.256659 18.761 -0.00945884 19.6176 -1.82455e-06C23.9494 0.0459014 28.2822 0.0235631 32.6141 0.0245343C32.9153 0.0245343 33.2174 0.0245343 33.766 0.0245343Z" fill="#027373"/>
<path fill-rule="evenodd" clip-rule="evenodd" d="M54.0751 0.112142C52.7843 2.63832 51.5757 5.01298 50.3593 7.38279C45.5854 16.6794 40.8057 25.9732 36.0456 35.2756C35.7943 35.7681 35.5088 35.9817 34.9445 35.9798C30.3575 35.9613 25.7704 35.9701 21.1834 35.9662C20.9897 35.9662 20.7971 35.9264 20.4324 35.8865C20.7815 35.1688 21.0777 34.5268 21.4014 33.8984C27.0758 22.8555 32.7571 11.8165 38.4208 0.768696C38.6828 0.255885 38.9781 0.00919131 39.5805 0.0120795C44.1108 0.0315297 48.6412 0.0218173 53.1715 0.0266735C53.416 0.0266735 53.6604 0.0713502 54.0751 0.112142Z" fill="#027373"/>
<path fill-rule="evenodd" clip-rule="evenodd" d="M40.7852 35.9445C40.9485 35.5726 41.0423 35.323 41.1636 35.086C43.5769 30.3871 46.0029 25.6941 48.3977 20.9846C48.6959 20.397 49.0587 20.196 49.7158 20.2008C53.5401 20.23 57.3645 20.2164 61.1888 20.2135C65.4591 20.2096 68.7798 23.236 69.2463 27.5609C69.6501 31.3137 66.8202 35.0374 62.8932 35.8552C62.1804 36.0028 61.4274 35.9941 60.6921 35.995C54.4036 36.0038 48.1141 35.9989 41.8246 35.996C41.5264 35.996 41.2281 35.9669 40.7852 35.9445Z" fill="#59C284"/>
<path fill-rule="evenodd" clip-rule="evenodd" d="M56.8533 15.8081C55.2399 15.8081 53.6274 15.7955 52.014 15.814C51.3226 15.8217 51.1466 15.6294 51.4859 14.9748C53.9657 10.1886 56.4201 5.38973 58.9009 0.604464C59.0241 0.367483 59.3175 0.0693143 59.5463 0.0566882C61.677 -0.056946 63.7803 -0.0346076 65.694 1.16098C68.6168 2.9869 70.1353 6.58629 69.2572 9.75639C68.2373 13.4335 65.3292 15.6965 61.4374 15.7975C59.91 15.8373 58.3817 15.8043 56.8533 15.8043V15.8081Z" fill="#59C284"/>
<path fill-rule="evenodd" clip-rule="evenodd" d="M13.4033 0.0907855C8.99126 8.66775 4.65258 17.1039 0.313888 25.54C0.209258 25.5186 0.104629 25.4973 0 25.4759C0 24.6513 0 23.8277 0 23.0031C0.00293353 15.7558 0.00488921 8.50846 0.00880058 1.26112C0.00977843 0.0295979 0.0117341 0.0247417 1.27706 0.0237705C4.93224 0.0201338 8.58742 0.0189143 12.2416 0.021828C12.5692 0.021828 12.8958 0.0597061 13.4033 0.0907855Z" fill="#027373"/>
<path fill-rule="evenodd" clip-rule="evenodd" d="M84.9507 7.71423H90.2519L92.9025 18.4161L93.8379 22.8436L94.7488 18.4161L97.2945 7.71423H102.854L105.402 18.4161L106.311 22.8436L107.246 18.4161L109.897 7.71423H115.198L109.117 28.2857H103.505L101.036 17.766L100.074 12.9478L99.1146 17.766L96.6441 28.2857H91.0334L84.9507 7.71423Z" fill="black"/>
<path fill-rule="evenodd" clip-rule="evenodd" d="M122.972 24.3463C124.723 24.3463 125.906 23.0344 125.906 21.2143C125.906 19.3958 124.723 18.0822 122.972 18.0822C121.221 18.0822 120.038 19.3958 120.038 21.2143C120.038 23.0344 121.221 24.3463 122.972 24.3463ZM121.941 14.1428C123.641 14.1428 125.056 14.8991 125.906 16.138V14.6476H130.644V27.7809H125.906V26.2922C125.056 27.6042 123.641 28.2857 121.941 28.2857C118.08 28.2857 115.198 25.4578 115.198 21.2143C115.198 16.9707 118.08 14.1428 121.941 14.1428Z" fill="black"/>
<path fill-rule="evenodd" clip-rule="evenodd" d="M144.241 19.2107H139.392V22.6032C139.392 24.2867 140.259 24.7191 141.432 24.7191C142.25 24.7191 143.272 24.5166 144.191 24.1082L144.802 28.2644C143.449 28.6728 141.867 28.9285 140.412 28.9285C136.913 28.9285 134.746 27.2966 134.746 23.4458V19.2107H132.574V15.13H134.746V10.2856H139.392V15.13H144.241V19.2107Z" fill="black"/>
<path fill-rule="evenodd" clip-rule="evenodd" d="M158.961 27.023C157.778 27.8319 155.691 28.2857 153.957 28.2857C149.432 28.2857 146.089 25.609 146.089 21.2143C146.089 16.8195 149.432 14.1428 153.957 14.1428C155.642 14.1428 157.727 14.5966 158.859 15.329L157.301 19.1953C156.597 18.6141 155.263 18.2589 154.233 18.2589C152.424 18.2589 151.066 19.3703 151.066 21.2143C151.066 23.0582 152.397 24.1696 154.334 24.1696C155.466 24.1696 156.746 23.8161 157.502 23.2349L158.961 27.023Z" fill="black"/>
<path fill-rule="evenodd" clip-rule="evenodd" d="M170.786 28.2857V21.2246C170.786 19.702 169.867 18.6852 168.294 18.6852C166.719 18.6852 165.801 19.702 165.801 21.2246V28.2857H160.891V7.71423H165.801V16.4261C166.482 15.2572 167.821 14.5719 169.606 14.5719C173.359 14.5719 175.693 16.7815 175.693 20.7922V28.2857H170.786Z" fill="black"/>
<path fill-rule="evenodd" clip-rule="evenodd" d="M183.103 24.1454H188.249C189.619 24.1454 190.654 23.3903 190.654 21.9851C190.654 20.5782 189.619 19.823 188.249 19.823H183.103V24.1454ZM183.103 15.9421H187.602C188.973 15.9421 189.954 15.3184 189.954 13.8869C189.954 12.4537 188.973 11.8299 187.602 11.8299H183.103V15.9421ZM178.268 28.2857V7.71423H187.913C192.282 7.71423 194.92 9.72039 194.92 13.391C194.92 15.5006 193.885 17.0634 192.101 17.5838C194.325 17.9483 195.644 19.5357 195.644 22.3495C195.644 25.9957 193.084 28.2857 188.611 28.2857H178.268Z" fill="black"/>
<path fill-rule="evenodd" clip-rule="evenodd" d="M205.297 24.3463C207.035 24.3463 208.212 23.0344 208.212 21.2143C208.212 19.3958 207.035 18.0822 205.297 18.0822C203.558 18.0822 202.382 19.3958 202.382 21.2143C202.382 23.0344 203.558 24.3463 205.297 24.3463ZM205.297 14.1428C209.72 14.1428 213.02 16.9707 213.02 21.2143C213.02 25.4578 209.72 28.2857 205.297 28.2857C200.873 28.2857 197.574 25.4578 197.574 21.2143C197.574 16.9707 200.873 14.1428 205.297 14.1428Z" fill="black"/>
<path fill-rule="evenodd" clip-rule="evenodd" d="M222.725 24.3463C224.476 24.3463 225.659 23.0344 225.659 21.2143C225.659 19.3958 224.476 18.0822 222.725 18.0822C220.973 18.0822 219.79 19.3958 219.79 21.2143C219.79 23.0344 220.973 24.3463 222.725 24.3463ZM221.694 14.1428C223.393 14.1428 224.808 14.8991 225.659 16.138V14.6476H230.396V27.7809H225.659V26.2922C224.808 27.6042 223.393 28.2857 221.694 28.2857C217.833 28.2857 214.951 25.4578 214.951 21.2143C214.951 16.9707 217.833 14.1428 221.694 14.1428Z" fill="black"/>
<path fill-rule="evenodd" clip-rule="evenodd" d="M243.167 19.5638C242.386 19.0404 241.477 18.7249 240.467 18.7249C238.928 18.7249 237.716 19.9832 237.716 22.1316V28.2857H232.97V14.6662H237.716V16.945C238.347 15.0857 239.735 14.1428 241.352 14.1428C242.461 14.1428 243.597 14.4037 244.555 14.9006L243.167 19.5638Z" fill="black"/>
<mask id="mask0_8_269" style="mask-type:luminance" maskUnits="userSpaceOnUse" x="244" y="7" width="17" height="22">
<path d="M244.555 7.71423H260V28.9285H244.555V7.71423Z" fill="white"/>
</mask>
<g mask="url(#mask0_8_269)">
<path fill-rule="evenodd" clip-rule="evenodd" d="M252.329 24.9419C254.079 24.9419 255.264 23.6142 255.264 21.7722C255.264 19.932 254.079 18.6026 252.329 18.6026C250.578 18.6026 249.395 19.932 249.395 21.7722C249.395 23.6142 250.578 24.9419 252.329 24.9419ZM251.298 14.616C252.998 14.616 254.413 15.254 255.264 16.3788V7.71423H260.001V28.4177H255.264V26.9111C254.413 28.2389 252.998 28.9285 251.298 28.9285C247.437 28.9285 244.555 26.0667 244.555 21.7722C244.555 17.4778 247.437 14.616 251.298 14.616Z" fill="black"/>
</g>
</g>
<defs>
<clipPath id="clip0_8_269">
<rect width="260" height="36" fill="white"/>
</clipPath>
</defs>
</svg>
